<svg xmlns="http://www.w3.org/2000/svg" viewBox="0 0 1306 872">
<g transform="translate(0,872) scale(0.1,-0.1)" fill="#F8F5EF"><path fill-rule="evenodd" d="M3139 8557 c-48 -18 -102 -50 -105 -62 -2 -6 11 -17 29 -26 60 -29
155 -168 322 -469 47 -85 268 -474 356 -629 l20 -33 -28 22 c-87 67 -212 140
-351 204 -86 40 -184 87 -217 103 -81 42 -256 158 -333 222 -35 29 -69 50 -76
48 -19 -7 -48 -75 -53 -122 -3 -22 0 -58 6 -80 23 -87 60 -126 263 -277 106
-80 243 -186 303 -237 307 -258 382 -309 524 -361 141 -52 294 -60 397 -24 38
14 -52 -70 -171 -158 -120 -90 -195 -136 -195 -120 0 5 43 50 95 101 52 52 95
95 95 96 0 1 -39 5 -87 8 -167 11 -337 71 -488 172 -51 33 -144 115 -236 205
-84 82 -154 149 -155 147 -1 -1 8 -39 21 -84 47 -162 43 -295 -16 -456 -40
-112 -102 -197 -247 -343 -167 -168 -247 -276 -332 -449 -100 -203 -138 -340
-160 -575 l-10 -105 33 -25 c17 -14 51 -42 75 -64 l42 -39 208 56 c250 67 327
81 399 73 160 -19 274 -141 272 -290 l0 -41 -16 40 c-66 163 -204 232 -413
206 -68 -9 -376 -76 -440 -96 -9 -3 -57 29 -114 74 -54 44 -122 91 -150 105
-28 14 -45 25 -38 26 20 0 15 14 -50 122 -75 126 -141 263 -207 428 -36 91
-51 120 -57 107 -6 -15 77 -552 93 -607 4 -13 3 -13 -5 0 -5 8 -51 139 -102
290 -61 181 -100 283 -116 299 l-23 24 32 16 c37 19 80 79 97 136 18 59 52
391 56 535 1 69 -2 148 -7 176 -17 89 -102 163 -187 164 l-34 0 35 -40 c66
-78 70 -160 11 -231 -29 -35 -54 -92 -54 -124 0 -5 -14 -30 -31 -55 -17 -25
-28 -36 -24 -25 7 22 25 173 25 219 0 21 -11 39 -38 66 -21 20 -50 61 -64 91
-61 130 -151 202 -253 201 -54 0 -119 -26 -144 -56 -11 -14 -11 -16 5 -16 45
0 101 -25 137 -60 34 -34 37 -42 32 -77 -7 -45 20 -97 60 -115 23 -10 25 -17
25 -74 0 -35 -5 -85 -11 -113 l-10 -49 -67 38 c-57 31 -72 47 -100 96 -45 79
-58 92 -106 106 -23 6 -57 26 -76 44 -63 59 -131 76 -211 53 -41 -13 -103 -59
-120 -91 -10 -18 -8 -19 33 -13 57 9 119 -16 158 -63 23 -28 27 -39 19 -55
-15 -28 -3 -62 38 -108 36 -40 77 -66 120 -78 34 -10 298 -256 347 -324 82
-116 82 -115 121 -512 37 -382 47 -438 91 -513 127 -219 327 -362 719 -514
l100 -38 -60 6 c-33 3 -100 15 -150 26 l-89 21 -26 -31 c-14 -17 -47 -70 -73
-119 -26 -49 -68 -114 -92 -145 l-45 -56 -131 6 c-90 3 -191 -1 -320 -13
l-189 -19 -6 -33 c-9 -49 -18 -48 -38 7 -14 40 -37 67 -122 146 l-105 97 6
-79 5 -79 -20 40 c-23 46 -54 145 -70 227 -21 105 -100 182 -224 219 -133 40
-254 10 -323 -80 -49 -64 -44 -74 25 -49 91 33 127 22 199 -66 17 -20 30 -26
61 -26 35 0 43 -4 61 -36 12 -20 20 -38 18 -40 -7 -7 -120 38 -146 58 -31 24
-94 23 -145 -1 -23 -10 -64 -26 -92 -35 -56 -18 -103 -49 -134 -89 -37 -46
-66 -157 -41 -157 5 0 11 7 15 15 3 8 26 28 52 44 59 38 136 49 179 27 35 -18
78 -21 106 -6 15 9 28 5 64 -20 25 -17 45 -35 45 -40 0 -15 -60 -22 -90 -10
-25 10 -35 9 -72 -9 -24 -11 -59 -27 -78 -34 -89 -35 -136 -104 -131 -191 1
-19 2 -19 24 1 59 54 131 69 195 41 42 -19 47 -19 101 -4 l56 16 130 -65 c93
-46 147 -67 186 -72 44 -5 62 -13 97 -45 55 -50 78 -58 170 -58 42 0 169 -14
282 -30 113 -17 248 -33 301 -37 114 -7 147 5 212 77 57 63 93 133 143 275 23
66 45 113 47 105 3 -8 11 -46 17 -85 46 -285 174 -614 337 -865 165 -253 332
-422 613 -620 41 -29 76 -54 78 -55 2 -2 -3 -16 -11 -32 -45 -86 -38 -209 17
-327 91 -197 380 -477 755 -731 143 -97 139 -93 157 -164 21 -84 13 -131 -41
-239 -41 -80 -164 -255 -219 -311 -30 -30 -44 -23 -129 70 -90 96 -117 156
-128 280 -13 153 -71 247 -191 311 -61 33 -203 33 -267 1 -42 -21 -45 -22 -75
-5 -48 26 -175 22 -249 -7 -110 -43 -237 -190 -253 -291 l-7 -45 38 34 c56 49
139 84 210 89 77 5 165 -26 195 -69 12 -16 30 -34 41 -40 28 -15 83 5 130 48
30 27 39 31 39 18 0 -9 -8 -30 -17 -47 l-18 -30 37 -31 37 -32 -6 -72 c-5 -62
-3 -76 16 -106 21 -34 75 -74 156 -115 l40 -20 -225 -4 c-213 -3 -228 -4 -273
-27 -31 -15 -62 -42 -85 -72 l-36 -49 -26 24 c-35 34 -76 48 -119 40 -95 -17
-195 -102 -225 -191 -15 -44 -22 -153 -10 -153 3 0 17 13 30 30 37 44 137 88
217 96 42 4 76 13 91 25 24 19 24 19 36 -12 32 -75 119 -92 203 -39 54 34 110
49 182 50 l49 0 -54 -33 c-59 -35 -112 -102 -130 -165 -11 -40 -14 -132 -4
-132 3 0 23 13 43 29 20 15 50 35 66 44 41 20 147 39 179 31 19 -4 32 2 59 28
47 45 52 74 23 133 l-25 47 44 -5 c34 -3 48 0 61 14 32 36 97 52 171 44 l68
-8 -78 -17 c-122 -26 -168 -71 -175 -169 -4 -56 -2 -62 26 -91 35 -35 67 -38
151 -15 46 12 350 14 2075 16 1112 1 2029 5 2040 8 19 7 -84 16 -674 56 -821
56 -1959 105 -2447 105 -219 0 -203 -7 -223 96 -32 164 53 303 294 479 81 58
109 86 125 119 32 66 27 99 -34 221 -63 126 -91 226 -101 358 -5 70 -12 101
-30 128 -54 86 -159 307 -195 409 -7 22 -7 23 4 6 47 -75 205 -272 211 -265 8
10 -14 165 -34 235 -11 44 -50 152 -86 242 -60 151 -112 318 -101 328 2 2 14
-18 25 -46 12 -28 62 -113 112 -190 135 -208 178 -314 201 -499 l13 -100 110
-55 c146 -73 231 -96 381 -103 151 -7 270 8 399 51 l99 33 221 -108 c1031
-502 1998 -863 2890 -1079 1022 -248 2029 -313 3624 -236 150 7 275 15 277 18
3 3 -111 8 -252 12 -1998 54 -3167 343 -4338 1074 -359 224 -797 562 -1255
971 -464 413 -679 616 -727 685 -78 111 -208 271 -303 370 -164 172 -331 296
-580 431 -127 69 -452 226 -458 221 -1 -2 7 -25 18 -52 28 -64 91 -246 87
-250 -1 -2 -25 34 -52 79 -162 269 -263 405 -405 547 -166 167 -369 295 -601
379 -86 31 -101 41 -172 110 -246 238 -334 630 -218 964 51 147 121 225 319
358 75 51 167 117 205 147 123 99 214 227 263 367 25 70 28 95 28 195 0 129
-27 258 -48 227 -42 -62 -90 -126 -92 -124 -2 1 8 32 21 68 71 197 72 360 2
492 -42 81 -100 127 -245 199 -71 35 -137 76 -155 95 -18 18 -95 118 -172 220
-157 211 -214 264 -334 314 -63 27 -92 33 -171 36 -64 2 -107 -1 -131 -10z
m207 -108 c16 -6 42 -26 57 -45 l28 -33 -55 1 c-46 1 -62 7 -97 35 -23 18 -46
33 -51 33 -5 0 -6 5 -3 10 8 13 85 13 121 -1z m488 -616 c46 -77 113 -184 149
-239 58 -89 65 -106 72 -167 3 -37 17 -107 30 -155 25 -92 26 -115 5 -60 -7
18 -67 146 -133 283 -65 138 -134 286 -152 330 -19 44 -41 98 -50 120 -25 58
-15 44 79 -112z m295 -101 c38 -29 75 -103 89 -180 5 -29 8 -51 6 -50 -1 2
-25 38 -53 81 -28 42 -54 77 -58 77 -5 -1 -19 -7 -33 -15 -43 -25 -52 -20 -49
31 3 45 2 46 -76 121 l-80 75 110 -58 c61 -31 125 -68 144 -82z m-365 -1237
c-9 -14 -86 -87 -171 -162 -256 -225 -373 -376 -459 -587 l-32 -81 5 65 c19
224 137 432 324 571 54 40 336 218 347 219 1 0 -5 -11 -14 -25z m152 -1760
c41 -9 95 -25 120 -35 55 -24 172 -100 197 -128 18 -19 15 -19 -65 5 -98 30
-262 41 -352 24 -70 -13 -74 -16 -53 -38 31 -35 59 -127 63 -208 l5 -80 -31
59 c-46 85 -115 151 -181 170 -53 16 -53 16 -117 -14 -114 -53 -237 -156 -366
-305 l-26 -30 25 60 c115 268 359 486 588 524 79 13 111 12 193 -4z m1409
-1130 c61 -13 222 -81 213 -90 -2 -2 -23 1 -48 5 -72 14 -241 11 -330 -6 -311
-59 -762 -323 -1052 -617 -94 -95 -108 -122 -128 -252 -26 -168 34 -450 151
-704 22 -46 38 -85 36 -87 -6 -6 -99 120 -146 198 -104 174 -153 336 -154 513
-2 187 21 244 166 412 250 293 667 554 1000 627 83 19 207 19 292 1z m588
-237 c262 -111 450 -327 503 -577 18 -85 18 -229 -1 -306 -17 -74 -56 -163
-96 -221 -31 -45 -109 -139 -109 -131 0 3 13 33 30 68 53 115 73 209 73 354 0
103 -4 147 -21 210 -56 204 -204 426 -385 577 -32 26 -55 48 -52 48 4 0 30
-10 58 -22z m-1294 -2200 c-66 -132 -161 -267 -266 -380 -37 -39 -53 -65 -53
-83 l0 -27 -31 26 c-36 31 -46 32 -79 6 -25 -20 -66 -25 -107 -14 -13 4 -23 9
-23 13 0 3 44 34 98 68 145 92 373 305 472 441 13 17 25 32 27 32 2 0 -15 -37
-38 -82z M2991 8381 c-22 -17 -23 -23 -17 -69 10 -78 51 -195 112 -317 58
-117 112 -210 120 -203 2 3 -16 48 -41 100 -60 127 -115 298 -122 379 -5 60
-3 69 17 89 18 18 20 24 9 31 -22 14 -52 10 -78 -10z M2280 289 c-330 -34 -654 -70
-659 -74 -2 -3 293 -5 656 -5 l661 0 6 26 c4 15 5 28 2 31 -22 22
-507 38 -666 22z"/></g>
</svg>